<svg width="43" height="21" viewBox="0 0 43 21" fill="none" xmlns="http://www.w3.org/2000/svg">
<path d="M18.025 20.4071C17.9145 16.5841 17.9145 16.5841 11.1829 10.395C14.6957 11.0543 17.2004 11.4766 19.6839 12.0034C22.3455 12.5679 25.0054 13.1603 27.6308 13.8686C31.1873 14.8281 34.6971 15.9605 38.2547 16.913C39.6642 17.2896 41.5949 18.5823 42.306 16.2468C42.9357 14.1792 40.8833 13.5188 39.4524 13.0816C34.2525 11.4943 29.0174 10.0091 23.7488 8.67281C20.8195 7.92908 17.7968 7.55457 14.2875 6.91732C18.3902 4.23594 23.4553 5.00283 27.3137 1.33941C25.76 0.930831 24.7583 0.388825 23.8026 0.460878C16.7417 0.994349 9.84137 2.324 3.26641 5.05719C2.67809 5.30288 2.07287 5.56832 1.57238 5.95177C-0.293914 7.375 -0.503122 9.46207 1.40761 10.7578C6.43075 14.16 11.5976 17.3522 16.7278 20.5956C16.925 20.7204 17.3283 20.52 18.025 20.4071Z" fill="#00A4D6"/>
</svg>
